<svg xmlns="http://www.w3.org/2000/svg" width="280" height="280" viewBox="0 0 280 280" role="img" aria-labelledby="title desc">
  <title id="title">TRACE radar mark</title>
  <desc id="desc">An evaluation radar mark with replay rings and a captured defect point.</desc>
  <defs>
    <filter id="softShadow" x="-20%" y="-20%" width="140%" height="140%">
      <feDropShadow dx="0" dy="10" stdDeviation="12" flood-color="#0f172a" flood-opacity="0.12"/>
    </filter>
  </defs>

  <g transform="translate(38 38)" filter="url(#softShadow)">
    <rect x="0" y="0" width="204" height="204" rx="42" fill="#ffffff"/>
    <circle cx="102" cy="102" r="67" fill="none" stroke="#0f172a" stroke-width="11"/>
    <circle cx="102" cy="102" r="39" fill="none" stroke="#cbd5e1" stroke-width="7"/>
    <path d="M102 32V172M32 102H172" stroke="#cbd5e1" stroke-width="6" stroke-linecap="round"/>
    <path d="M62 142C82 161 119 163 143 140C169 115 164 71 135 52" fill="none" stroke="#14b8a6" stroke-width="10" stroke-linecap="round"/>
    <path d="M133 53L158 48L148 72Z" fill="#14b8a6"/>
    <circle cx="132" cy="74" r="11" fill="#38bdf8"/>
    <circle cx="69" cy="126" r="11" fill="#38bdf8"/>
    <circle cx="102" cy="102" r="18" fill="#fffbeb" stroke="#f59e0b" stroke-width="8"/>
    <path d="M92 102H112M102 92V112" stroke="#f59e0b" stroke-width="6" stroke-linecap="round"/>
  </g>
</svg>
