<svg xmlns="http://www.w3.org/2000/svg" width="960" height="280" viewBox="0 0 960 280" role="img" aria-labelledby="title desc">
  <title id="title">TRACE logo</title>
  <desc id="desc">A simple paper archive mark with a trace path and TRACE wordmark.</desc>
  <defs>
    <pattern id="archiveGrid" width="18" height="18" patternUnits="userSpaceOnUse">
      <path d="M18 0H0V18" fill="none" stroke="#e5e0d8" stroke-width="1" opacity="0.42"/>
    </pattern>
  </defs>

  <g transform="translate(62 42)">
    <rect x="0" y="0" width="196" height="196" rx="8" fill="#ffffff" stroke="#e5e0d8" stroke-width="2"/>
    <rect x="12" y="12" width="172" height="172" rx="4" fill="url(#archiveGrid)" opacity="0.85"/>
    <path d="M44 64H80C96 64 104 72 104 88V108C104 124 112 132 128 132H152" fill="none" stroke="#6f8ea8" stroke-width="8" stroke-linecap="round" stroke-linejoin="round"/>
    <circle cx="44" cy="64" r="11" fill="#d7a44c" stroke="#ffffff" stroke-width="5"/>
    <circle cx="104" cy="108" r="11" fill="#8b7aa8" stroke="#ffffff" stroke-width="5"/>
    <circle cx="152" cy="132" r="11" fill="#7f9b83" stroke="#ffffff" stroke-width="5"/>
    <path d="M146 132L151 137L160 126" fill="none" stroke="#ffffff" stroke-width="3.2" stroke-linecap="round" stroke-linejoin="round"/>
    <path d="M42 160H154" stroke="#e5e0d8" stroke-width="3" stroke-linecap="round"/>
    <path d="M42 174H118" stroke="#e5e0d8" stroke-width="3" stroke-linecap="round"/>
  </g>

  <g transform="translate(306 82)">
    <text x="0" y="84" fill="#252422" font-family="EB Garamond, Source Han Serif SC, Noto Serif CJK SC, Georgia, serif" font-size="98" font-style="italic" font-weight="500" letter-spacing="6">TRACE</text>
    <path d="M8 116H336" stroke="#e5e0d8" stroke-width="1.8" stroke-linecap="round"/>
    <path d="M16 104C74 113 132 112 190 105C238 99 286 100 328 108" fill="none" stroke="#d7a44c" stroke-width="2.2" stroke-linecap="round" opacity="0.58"/>
    <circle cx="8" cy="116" r="3.6" fill="#d7a44c"/>
    <circle cx="172" cy="116" r="3.6" fill="#6f8ea8"/>
    <circle cx="336" cy="116" r="3.6" fill="#7f9b83"/>
  </g>
</svg>
